<svg id="katman_1" data-name="katman 1" xmlns="http://www.w3.org/2000/svg" viewBox="0 0 100 125"><defs><style>.cls-1{fill:#fff;}</style></defs><title>hizli-money2</title><path class="cls-1" d="M62.86,73.09H56V52.16a1,1,0,0,0-1-1H45a1,1,0,0,0-1,1V73.09H37.14a.5.5,0,0,0-.35.85L49.29,86.46a1,1,0,0,0,1.42,0L63.22,73.95a.5.5,0,0,0-.35-.85Z"/><path class="cls-1" d="M35.11,86.09H28.25V65.16a1,1,0,0,0-1-1h-10a1,1,0,0,0-1,1V86.09H9.39a.5.5,0,0,0-.35.85L21.54,99.46a1,1,0,0,0,1.42,0L35.47,86.95a.5.5,0,0,0-.35-.85Z"/><path class="cls-1" d="M91.36,86.09H84.5V65.16a1,1,0,0,0-1-1h-10a1,1,0,0,0-1,1V86.09H65.64a.5.5,0,0,0-.35.85L77.79,99.46a1,1,0,0,0,1.42,0L91.72,86.95a.5.5,0,0,0-.35-.85Z"/><path class="cls-1" d="M57,45.12V36.93a36.9,36.9,0,0,1-14,0v8.19A32.62,32.62,0,0,0,57,45.12Z"/><path class="cls-1" d="M42.27,24.49A7.58,7.58,0,0,1,43,27.72v5.11a32.21,32.21,0,0,0,14,0V27.72a7.58,7.58,0,0,1,.73-3.23,35,35,0,0,1-7.73.83A35,35,0,0,1,42.27,24.49Z"/><ellipse class="cls-1" cx="50" cy="13.16" rx="17" ry="8.16"/><path class="cls-1" d="M61,47.2v5.08c0,3.86,7,8.16,17,8.16s17-4.3,17-8.16V47.2c-3.79,3-9.92,5-17,5S64.79,50.22,61,47.2Z"/><path class="cls-1" d="M61,34.92V40c0,3.86,7,8.16,17,8.16S95,43.86,95,40V34.92c-3.79,3-9.92,5-17,5S64.79,37.94,61,34.92Z"/><ellipse class="cls-1" cx="78" cy="27.72" rx="17" ry="8.16"/><path class="cls-1" d="M22,60.44c10,0,17-4.3,17-8.16V47.2c-3.79,3-9.92,5-17,5s-13.21-1.94-17-5v5.08C5,56.14,12,60.44,22,60.44Z"/><path class="cls-1" d="M22,48.16c10,0,17-4.3,17-8.16V34.92c-3.79,3-9.92,5-17,5s-13.21-1.94-17-5V40C5,43.86,12,48.16,22,48.16Z"/><ellipse class="cls-1" cx="22" cy="27.72" rx="17" ry="8.16"/></svg>