<svg id="katman_1" data-name="katman 1" xmlns="http://www.w3.org/2000/svg" viewBox="0 0 100 125"><defs><style>.cls-1{fill:#fff;}</style></defs><title>hizli-home</title><path class="cls-1" d="M95,45.4,52.2,2.7a3.14,3.14,0,0,0-4.4,0L5,45.4a1.69,1.69,0,0,0,1.2,2.9h10V95.9a2.43,2.43,0,0,0,2.4,2.4H81.3a2.43,2.43,0,0,0,2.4-2.4V48.3h10A1.72,1.72,0,0,0,95,45.4ZM70.27,87.74l-9.52.12,2.2-10.54-9.66.26L50.94,87.68c-2,.08-10.16.42-12.68-.26-.8-2.88,1.66-1.8,4.06-2.35,2.05-.47,2.11-2.37-.08-2.76-1.42-.24-2.88-.07-4.38-.22-3-.29-1-2.48,0-2.74s2.42,0,4.31.07c2.16,0,3.55.06,4.44,0,2.25-.19,2.38-2.5-.32-3-4-.81-10.22.79-14-.18-2-.52-1.21-1.86,0-2.42s3.4-.15,5.51-.15c6.84,0,6.93.66,7-2.33-3.5-2.38-16,.48-20.82-.9-1.95-.56-1.71-1.75-.1-2.45s3.77-.15,5.8-.15H50.22c1.75-.42,3.06-2.54.83-2.92a17.27,17.27,0,0,0-4.14,0c-1.62,0-3.33-2.28,1.16-2.86,3.22-.56,3.46-2.87,0-3.17l-7.6.1c-2.95-.21-3.38-2-1.16-2.42l18.61,0L55.8,66.73l9.65-.1L68,56.45l9.29.08Z"/></svg>