<svg id="katman_1" data-name="katman 1" xmlns="http://www.w3.org/2000/svg" viewBox="0 0 46 29.17"><defs><style>.cls-1{fill:#fff;}</style></defs><title>hizli-money</title><path class="cls-1" d="M12,23.15a.69.69,0,0,0,.69.69h22a.69.69,0,0,0,.69-.69,2.06,2.06,0,0,1,2.05-2,.68.68,0,0,0,.67-.55l1.37-6.86a.69.69,0,0,0-.55-.81h-.12a2.06,2.06,0,0,1-2.06-2.06h0a.69.69,0,0,0-.69-.69H14.09a.69.69,0,0,0-.69.69,2.06,2.06,0,0,1-2.06,2.06.68.68,0,0,0-.67.55L9.3,20.28a.69.69,0,0,0,.55.81H10A2.06,2.06,0,0,1,12,23.15ZM22.1,12.33a4.64,4.64,0,0,1,2.56-.8,4.26,4.26,0,0,1,1.1.14c2.56.69,4,3.62,3.22,6.54a5.86,5.86,0,0,1-2.4,3.4,4.49,4.49,0,0,1-3.66.65c-2.56-.69-4-3.62-3.22-6.54a5.86,5.86,0,0,1,2.43-3.38ZM38,14.14l-1.13,5.63A3.44,3.44,0,0,0,34,22.47H27.79a7.27,7.27,0,0,0,2.55-3.89,6.92,6.92,0,0,0-2-7.08h7.09A3.44,3.44,0,0,0,38,14.14Zm-26,.05a3.44,3.44,0,0,0,2.79-2.7H21a7.27,7.27,0,0,0-2.55,3.89,6.92,6.92,0,0,0,2,7.08H13.33a3.44,3.44,0,0,0-2.54-2.64Z"/><path class="cls-1" d="M43.41,7.62a.68.68,0,0,0-.52-.24H10V8.75H42.09L39.55,25.21H7.23v1.37H40.14a.69.69,0,0,0,.68-.58L43.56,8.17A.68.68,0,0,0,43.41,7.62Z"/><rect class="cls-1" x="2.43" y="10.13" width="8.91" height="1.37"/><rect class="cls-1" x="3.11" y="14.24" width="6.17" height="1.37"/><rect class="cls-1" x="3.8" y="18.35" width="4.11" height="1.37"/><rect class="cls-1" x="4.49" y="22.47" width="2.74" height="1.37"/><path class="cls-1" d="M21.7,18a1.63,1.63,0,0,0,1.46,2.36h.52v.69h1.37v-.69h.1a1.63,1.63,0,0,0,1.46-.9l.42-.85a.68.68,0,0,0-.23-.88l-3.6-2.35.15-.31a.26.26,0,0,1,.23-.15h2a.26.26,0,0,1,.23.38l1.23.61a1.63,1.63,0,0,0-1.46-2.36h-.52v-.69H23.69v.69h-.1a1.63,1.63,0,0,0-1.46.9l-.42.85a.68.68,0,0,0,.23.88l3.61,2.41-.15.31a.26.26,0,0,1-.23.15h-2a.26.26,0,0,1-.23-.38Z"/><rect class="cls-1" x="27.11" y="2.58" width="16.46" height="1.37"/><rect class="cls-1" x="24.37" y="2.58" width="1.37" height="1.37"/><rect class="cls-1" x="21.63" y="2.58" width="1.37" height="1.37"/><rect class="cls-1" x="18.89" y="2.58" width="1.37" height="1.37"/></svg>