<?xml version="1.0" encoding="utf-8"?>
<!-- Generator: Adobe Illustrator 24.0.1, SVG Export Plug-In . SVG Version: 6.00 Build 0)  -->
<svg version="1.1" id="katman_1" xmlns="http://www.w3.org/2000/svg" xmlns:xlink="http://www.w3.org/1999/xlink" x="0px" y="0px"
	 viewBox="0 0 288 81" style="enable-background:new 0 0 288 81;" xml:space="preserve">
<style type="text/css">
	.st0{fill-rule:evenodd;clip-rule:evenodd;fill:#FEFFFF;}
	.st1{fill-rule:evenodd;clip-rule:evenodd;fill:#3DB2A3;}
</style>
<path class="st0" d="M31.61,21.46l10.92-0.15c4.92,0.43,4.57,3.74-0.05,4.55c-6.45,0.84-3.98,4.12-1.66,4.11
	c1.41-0.01,3.37-0.48,5.94-0.03c3.21,0.55,1.32,3.59-1.19,4.2l-29.34,0.01c-2.92-0.01-6.2-0.73-8.33,0.21
	c-2.31,1.01-2.66,2.71,0.14,3.52c6.87,1.98,24.87-2.13,29.9,1.29c-0.16,4.29-0.28,3.33-10.11,3.34c-3.03,0-6.03-0.64-7.91,0.21
	c-1.77,0.8-2.86,2.73-0.03,3.47c5.37,1.4,14.35-0.9,20.05,0.26c3.88,0.79,3.69,4.1,0.46,4.38c-1.28,0.11-3.28,0.09-6.38,0.03
	c-2.72-0.05-4.77-0.46-6.19-0.1c-1.47,0.37-4.26,3.51-0.01,3.93c2.15,0.21,4.25-0.04,6.29,0.31c3.15,0.55,3.07,3.29,0.12,3.96
	c-3.45,0.79-6.98-0.77-5.83,3.37c3.61,0.99,15.29,0.49,18.21,0.38l3.37-14.52l13.88-0.37l-3.16,15.14l13.68-0.17L84.4,17.97
	l-13.34-0.12l-3.61,14.62l-13.86,0.14l3.08-14.59l-26.73-0.04C26.76,18.59,27.38,21.16,31.61,21.46"/>
<path class="st0" d="M108.39,24.76l-0.71,3.24l18.5,0.09L104.49,50c-4.78,4.33-4.37,6.69-6.11,12.94l35.93,0.18l2.34-10.63
	l-19.33-0.09l22.81-22.93c3.54-3.06,3.92-4.87,4.79-11.47l-35.13-0.01L108.39,24.76z"/>
<polygon class="st0" points="140.06,62.98 171.48,63.19 173.83,52.24 154.73,52.04 162.32,17.93 151.46,17.81 "/>
<polygon class="st0" points="176.86,62.76 187.97,62.69 199.16,17.9 187.59,17.96 "/>
<polygon class="st0" points="80.96,62.71 92.08,62.7 103.15,18.05 91.78,17.97 "/>
<polygon class="st0" points="268.95,40.45 274.65,55.37 279.67,27.97 "/>
<path class="st0" d="M17.34,29.87c1.32,0.06,3.37-0.08,6.62-0.08c1.97,0,3.74,0.26,5.23,0.34c0.72,0.04,1.38-0.02,1.97-0.05
	c0.11-0.01,0.22-0.06,0.34-0.04c2.66,0.42,3.87-3.77-0.24-4.12c-3.87-0.32-10.18-0.3-13.82,0.13
	C12.61,26.62,15.03,29.76,17.34,29.87"/>
<path class="st0" d="M9.61,54.42c2.58,0.78,6.71,0.79,9.81,0.37c4.74-0.64,3.91-3.71-0.12-3.94c-1.55-0.09-3.19,0.05-4.63,0.04
	c-1.98-0.01-3.57-0.25-4.64,0.04C8.77,51.29,7.36,53.74,9.61,54.42"/>
<path class="st1" d="M250.88,40.57c-2.77,1.77-13.64,15.45-17.18,19.43c-0.56,0.65-1.44,2.06-1.98,2.9l13.3-0.2l11.41-13.62
	l4.91,13.38l11.13,0.15c-1.87-3.21-2.98-7.33-4.17-10.52l-4.1-12.36l17.75-21.86l-12.49,0.03l-10.47,12.29l-4.54-12.21l-11.65-0.11
	L250.88,40.57z"/>
<polygon class="st1" points="195.86,62.85 207.59,62.77 211.03,46.71 230.41,46.55 231.99,36.68 213.44,36.65 215.22,28.17 
	236.59,28.04 239.28,18.12 206.86,18.14 "/>
</svg>
